{
	"asset":{
		"copyright":"\"Mario Coin\" (https://sketchfab.com/3d-models/mario-coin-4dcfb41bfd2843348c3f6149483f5a2d) by Alucard (https://sketchfab.com/Ronald.Browen) licensed under CC-BY-4.0 (http://creativecommons.org/licenses/by/4.0/)",
		"generator":"Khronos glTF Blender I/O v3.6.27",
		"version":"2.0"
	},
	"scene":0,
	"scenes":[
		{
			"name":"Scene",
			"nodes":[
				0
			]
		}
	],
	"nodes":[
		{
			"mesh":0,
			"name":"mario_coin"
		}
	],
	"materials":[
		{
			"doubleSided":true,
			"name":"Gold.001",
			"occlusionTexture":{
				"index":0
			},
			"pbrMetallicRoughness":{
				"baseColorTexture":{
					"index":1
				},
				"metallicRoughnessTexture":{
					"index":0
				},
				"roughnessFactor":0.12882518768310547
			}
		}
	],
	"meshes":[
		{
			"name":"mario_coin",
			"primitives":[
				{
					"attributes":{
						"POSITION":0,
						"NORMAL":1,
						"TEXCOORD_0":2
					},
					"indices":3,
					"material":0
				}
			]
		}
	],
	"textures":[
		{
			"sampler":0,
			"source":0
		},
		{
			"sampler":0,
			"source":1
		}
	],
	"images":[
		{
			"mimeType":"image/png",
			"name":"Gold.001_metallicRoughness",
			"uri":"textures/Gold_001_metallicRoughness.png"
		},
		{
			"mimeType":"image/png",
			"name":"Gold.001_baseColor",
			"uri":"textures/Gold_001_baseColor.png"
		}
	],
	"accessors":[
		{
			"bufferView":0,
			"componentType":5126,
			"count":4308,
			"max":[
				0.9980266094207764,
				0.9982689619064331,
				0.1250011920928955
			],
			"min":[
				-0.9980266094207764,
				-0.9982708692550659,
				-0.12499916553497314
			],
			"type":"VEC3"
		},
		{
			"bufferView":1,
			"componentType":5126,
			"count":4308,
			"type":"VEC3"
		},
		{
			"bufferView":2,
			"componentType":5126,
			"count":4308,
			"type":"VEC2"
		},
		{
			"bufferView":3,
			"componentType":5123,
			"count":17748,
			"type":"SCALAR"
		}
	],
	"bufferViews":[
		{
			"buffer":0,
			"byteLength":51696,
			"byteOffset":0,
			"target":34962
		},
		{
			"buffer":0,
			"byteLength":51696,
			"byteOffset":51696,
			"target":34962
		},
		{
			"buffer":0,
			"byteLength":34464,
			"byteOffset":103392,
			"target":34962
		},
		{
			"buffer":0,
			"byteLength":35496,
			"byteOffset":137856,
			"target":34963
		}
	],
	"samplers":[
		{
			"magFilter":9729,
			"minFilter":9987
		}
	],
	"buffers":[
		{
			"byteLength":173352,
			"uri":"coin.bin"
		}
	]
}
