<?xml version="1.0" standalone="no"?>
<!DOCTYPE svg PUBLIC "-//W3C//DTD SVG 20010904//EN"
 "http://www.w3.org/TR/2001/REC-SVG-20010904/DTD/svg10.dtd">
<svg version="1.0" xmlns="http://www.w3.org/2000/svg"
 width="800.000000pt" height="800.000000pt" viewBox="0 0 800.000000 800.000000"
 preserveAspectRatio="xMidYMid meet">
<metadata>
Created by potrace 1.14, written by Peter Selinger 2001-2017
</metadata>
<g transform="translate(0.000000,800.000000) scale(0.100000,-0.100000)"
fill="#000000" stroke="none">
<path d="M0 3995 l0 -1675 280 0 280 0 0 73 c1 39 2 353 3 697 l2 624 925 1
925 0 3 978 2 977 -1210 0 -1210 0 0 -1675z m1858 698 l-3 -418 -645 0 -645 0
-2 418 -2 417 650 0 649 0 -2 -417z"/>
<path d="M2792 5158 l3 -513 222 0 c122 0 225 -4 230 -8 4 -5 8 -108 8 -230
l0 -222 233 -3 232 -2 0 -185 0 -185 -233 0 -233 0 1 -222 c1 -123 0 -228 -2
-233 -2 -7 -86 -10 -233 -10 l-230 1 0 -513 0 -513 280 0 280 0 0 465 0 465
233 0 233 0 -1 230 c0 149 3 230 10 231 59 7 355 2 358 -6 2 -5 3 -110 2 -232
l-1 -223 233 0 233 0 0 -465 0 -465 280 0 280 0 0 513 0 513 -229 0 c-222 -1
-230 -1 -233 19 -2 11 -3 116 -3 233 l1 212 -233 0 -233 0 0 185 0 185 233 2
232 3 0 220 c0 121 3 225 7 230 4 7 90 10 232 10 l226 -1 0 513 0 513 -280 0
-280 0 0 -465 0 -465 -233 0 -232 0 0 -232 0 -233 -182 0 c-114 0 -184 4 -186
10 -2 5 -3 110 -2 233 l0 222 -232 0 -233 0 0 465 0 465 -280 0 -280 0 2 -512z"/>
<path d="M5580 4703 c0 -1141 0 -1748 0 -2115 l0 -268 1210 0 1210 0 0 280 0
280 -47 0 c-27 1 -445 1 -930 1 l-883 1 0 1394 0 1394 -280 0 -280 0 0 -967z"/>
</g>
</svg>
