{
    "asset" : {
        "generator" : "Khronos glTF Blender I/O v3.2.43",
        "version" : "2.0"
    },
    "scene" : 0,
    "scenes" : [
        {
            "name" : "Scene",
            "nodes" : [
                0
            ]
        }
    ],
    "nodes" : [
        {
            "mesh" : 0,
            "name" : "LOTR_LOTR_0",
            "scale" : [
                0.09788598865270615,
                0.09788598865270615,
                0.09788598865270615
            ]
        }
    ],
    "animations" : [
        {
            "channels" : [
                {
                    "sampler" : 0,
                    "target" : {
                        "node" : 0,
                        "path" : "translation"
                    }
                },
                {
                    "sampler" : 1,
                    "target" : {
                        "node" : 0,
                        "path" : "rotation"
                    }
                },
                {
                    "sampler" : 2,
                    "target" : {
                        "node" : 0,
                        "path" : "scale"
                    }
                }
            ],
            "name" : "LOTR_LOTR_0",
            "samplers" : [
                {
                    "input" : 4,
                    "interpolation" : "LINEAR",
                    "output" : 5
                },
                {
                    "input" : 4,
                    "interpolation" : "LINEAR",
                    "output" : 6
                },
                {
                    "input" : 4,
                    "interpolation" : "LINEAR",
                    "output" : 7
                }
            ]
        }
    ],
    "materials" : [
        {
            "doubleSided" : true,
            "emissiveFactor" : [
                1,
                1,
                1
            ],
            "emissiveTexture" : {
                "index" : 0
            },
            "name" : "LOTR.003",
            "pbrMetallicRoughness" : {
                "baseColorFactor" : [
                    0.610495924949646,
                    0.39071887731552124,
                    0,
                    1
                ],
                "metallicFactor" : 0.949999988079071,
                "roughnessFactor" : 0.05000000074505806
            }
        }
    ],
    "meshes" : [
        {
            "name" : "LOTR_LOTR_0.003",
            "primitives" : [
                {
                    "attributes" : {
                        "POSITION" : 0,
                        "NORMAL" : 1,
                        "TEXCOORD_0" : 2
                    },
                    "indices" : 3,
                    "material" : 0
                }
            ]
        }
    ],
    "textures" : [
        {
            "sampler" : 0,
            "source" : 0
        }
    ],
    "images" : [
        {
            "mimeType" : "image/png",
            "name" : "Image_0",
            "uri" : "textures/Image_0.png"
        }
    ],
    "accessors" : [
        {
            "bufferView" : 0,
            "componentType" : 5126,
            "count" : 1258,
            "max" : [
                10.0242338180542,
                4.525982856750488,
                9.897249221801758
            ],
            "min" : [
                -10.024236679077148,
                -4.530580997467041,
                -9.891716003417969
            ],
            "type" : "VEC3"
        },
        {
            "bufferView" : 1,
            "componentType" : 5126,
            "count" : 1258,
            "type" : "VEC3"
        },
        {
            "bufferView" : 2,
            "componentType" : 5126,
            "count" : 1258,
            "type" : "VEC2"
        },
        {
            "bufferView" : 3,
            "componentType" : 5123,
            "count" : 5760,
            "type" : "SCALAR"
        },
        {
            "bufferView" : 4,
            "componentType" : 5126,
            "count" : 121,
            "max" : [
                5
            ],
            "min" : [
                0
            ],
            "type" : "SCALAR"
        },
        {
            "bufferView" : 5,
            "componentType" : 5126,
            "count" : 121,
            "type" : "VEC3"
        },
        {
            "bufferView" : 6,
            "componentType" : 5126,
            "count" : 121,
            "type" : "VEC4"
        },
        {
            "bufferView" : 7,
            "componentType" : 5126,
            "count" : 121,
            "type" : "VEC3"
        }
    ],
    "bufferViews" : [
        {
            "buffer" : 0,
            "byteLength" : 15096,
            "byteOffset" : 0
        },
        {
            "buffer" : 0,
            "byteLength" : 15096,
            "byteOffset" : 15096
        },
        {
            "buffer" : 0,
            "byteLength" : 10064,
            "byteOffset" : 30192
        },
        {
            "buffer" : 0,
            "byteLength" : 11520,
            "byteOffset" : 40256
        },
        {
            "buffer" : 0,
            "byteLength" : 484,
            "byteOffset" : 51776
        },
        {
            "buffer" : 0,
            "byteLength" : 1452,
            "byteOffset" : 52260
        },
        {
            "buffer" : 0,
            "byteLength" : 1936,
            "byteOffset" : 53712
        },
        {
            "buffer" : 0,
            "byteLength" : 1452,
            "byteOffset" : 55648
        }
    ],
    "samplers" : [
        {
            "magFilter" : 9729,
            "minFilter" : 9987
        }
    ],
    "buffers" : [
        {
            "byteLength" : 57100,
            "uri" : "one-ring.bin"
        }
    ]
}
