{
    "asset" : {
        "copyright" : "CC-BY-4.0 - Rigsters (https://sketchfab.com/rigsters)",
        "generator" : "Khronos glTF Blender I/O v3.2.43",
        "version" : "2.0"
    },
    "scene" : 0,
    "scenes" : [
        {
            "name" : "Scene",
            "nodes" : [
                0
            ]
        }
    ],
    "nodes" : [
        {
            "mesh" : 0,
            "name" : "Object_2",
            "rotation" : [
                -0.4994240999221802,
                0.49680694937705994,
                0.5031363368034363,
                0.5006118416786194
            ]
        }
    ],
    "materials" : [
        {
            "doubleSided" : true,
            "name" : "material_0",
            "pbrMetallicRoughness" : {
                "baseColorTexture" : {
                    "index" : 0
                },
                "metallicFactor" : 0,
                "roughnessFactor" : 0.5
            }
        }
    ],
    "meshes" : [
        {
            "name" : "Object_0",
            "primitives" : [
                {
                    "attributes" : {
                        "POSITION" : 0,
                        "NORMAL" : 1,
                        "TEXCOORD_0" : 2
                    },
                    "indices" : 3,
                    "material" : 0
                }
            ]
        }
    ],
    "textures" : [
        {
            "sampler" : 0,
            "source" : 0
        }
    ],
    "images" : [
        {
            "mimeType" : "image/jpeg",
            "name" : "material_0_baseColor",
            "uri" : "textures/material_0_baseColor.jpg"
        }
    ],
    "accessors" : [
        {
            "bufferView" : 0,
            "componentType" : 5126,
            "count" : 20868,
            "max" : [
                0.74923175573349,
                0.5400051474571228,
                0.8873142004013062
            ],
            "min" : [
                -0.7599360942840576,
                -0.5287297368049622,
                -0.8982464671134949
            ],
            "type" : "VEC3"
        },
        {
            "bufferView" : 1,
            "componentType" : 5126,
            "count" : 20868,
            "type" : "VEC3"
        },
        {
            "bufferView" : 2,
            "componentType" : 5126,
            "count" : 20868,
            "type" : "VEC2"
        },
        {
            "bufferView" : 3,
            "componentType" : 5123,
            "count" : 107043,
            "type" : "SCALAR"
        }
    ],
    "bufferViews" : [
        {
            "buffer" : 0,
            "byteLength" : 250416,
            "byteOffset" : 0
        },
        {
            "buffer" : 0,
            "byteLength" : 250416,
            "byteOffset" : 250416
        },
        {
            "buffer" : 0,
            "byteLength" : 166944,
            "byteOffset" : 500832
        },
        {
            "buffer" : 0,
            "byteLength" : 214086,
            "byteOffset" : 667776
        }
    ],
    "samplers" : [
        {
            "magFilter" : 9729,
            "minFilter" : 9987
        }
    ],
    "buffers" : [
        {
            "byteLength" : 881864,
            "uri" : "thinker.bin"
        }
    ]
}
